<?xml version="1.0" standalone="no"?>
<!DOCTYPE svg PUBLIC "-//W3C//DTD SVG 20010904//EN"
 "http://www.w3.org/TR/2001/REC-SVG-20010904/DTD/svg10.dtd">
<svg version="1.0" xmlns="http://www.w3.org/2000/svg"
 width="2300.000000pt" height="2300.000000pt" viewBox="0 0 2300.000000 2300.000000"
 preserveAspectRatio="xMidYMid meet">

<g transform="translate(0.000000,2300.000000) scale(0.100000,-0.100000)"
fill="#000000" stroke="none">
<path d="M8655 15564 c-22 -2 -96 -8 -165 -14 -175 -15 -435 -56 -567 -91
-491 -126 -848 -407 -1061 -834 -135 -270 -190 -540 -198 -965 l-5 -245 375
-377 c402 -404 459 -473 526 -635 64 -152 74 -210 74 -408 0 -167 -2 -186 -28
-269 -15 -49 -42 -122 -61 -162 -67 -146 -124 -213 -514 -606 l-374 -377 6
-248 c9 -415 63 -681 192 -948 163 -337 401 -577 730 -735 197 -95 371 -144
650 -184 340 -50 638 -62 1167 -47 435 12 577 21 894 56 214 24 245 25 895 25
658 0 674 0 715 21 23 11 59 40 79 65 21 25 191 316 379 647 188 331 443 779
565 995 123 215 227 392 231 392 7 0 101 -153 878 -1415 190 -308 361 -581
381 -608 22 -29 54 -57 85 -72 l50 -25 1165 0 1165 0 44 21 c26 13 54 38 70
62 l27 41 3 1174 2 1175 138 -7 c320 -15 820 -18 972 -7 534 40 942 135 1285
300 404 194 684 444 896 803 101 168 158 311 209 520 53 218 65 339 64 693 0
354 -14 487 -74 720 -128 495 -451 911 -920 1184 -274 159 -562 256 -950 320
-402 67 -725 81 -1410 62 -1973 -54 -2641 -74 -2674 -83 -28 -7 -58 -28 -100
-71 -56 -57 -107 -145 -576 -992 -283 -511 -523 -947 -535 -967 -11 -21 -23
-38 -26 -38 -4 0 -68 100 -142 223 -75 122 -341 555 -590 961 -479 780 -530
853 -612 881 -33 12 -175 14 -773 15 -658 0 -755 2 -935 20 -393 39 -645 51
-1117 55 -256 1 -483 1 -505 -1z m2954 -2390 l671 -1091 -676 -1169 c-372
-643 -680 -1173 -684 -1178 -5 -4 -25 5 -46 20 l-37 29 -1081 5 c-994 5 -1086
7 -1141 23 -192 57 -276 140 -327 324 -21 76 -22 97 -26 691 l-3 612 1241 0
c1019 0 1246 2 1273 14 39 16 94 76 104 114 5 15 8 246 8 514 l0 486 -30 44
c-18 25 -49 52 -75 66 l-44 22 -1239 0 -1238 0 4 538 c4 599 5 612 75 745 55
106 143 166 297 203 63 15 183 18 1142 23 l1071 6 39 32 c21 17 41 28 44 25 4
-4 309 -498 678 -1098z m6601 1038 c151 -28 271 -67 385 -125 127 -65 241
-174 297 -282 73 -141 108 -316 108 -540 0 -583 -241 -871 -815 -972 -87 -16
-164 -18 -611 -17 -280 0 -518 3 -527 7 -16 6 -17 70 -15 969 l3 963 260 11
c379 17 782 11 915 -14z m-2760 -2174 c0 -1799 -2 -2090 -14 -2078 -8 8 -247
395 -531 860 -285 465 -562 918 -617 1006 l-99 162 612 1048 c655 1125 637
1094 644 1094 3 0 5 -941 5 -2092z"/>
<path d="M4421 15223 c-36 -37 -177 -261 -208 -331 -36 -82 -50 -162 -57 -323
-7 -163 4 -295 34 -390 24 -79 109 -224 194 -333 78 -101 881 -912 1430 -1446
l406 -395 -914 -915 c-502 -503 -934 -943 -959 -977 -253 -334 -277 -813 -59
-1163 44 -70 169 -210 188 -210 5 0 603 595 1329 1323 1215 1216 1324 1329
1369 1405 99 168 146 338 146 529 0 239 -71 446 -217 635 -59 77 -2558 2585
-2595 2604 -39 20 -56 18 -87 -13z"/>
<path d="M3120 14438 c-58 -73 -131 -209 -166 -310 -86 -252 -37 -494 145
-721 32 -39 361 -372 730 -739 369 -368 671 -671 671 -675 0 -4 -314 -322
-699 -707 -551 -553 -709 -717 -749 -778 -211 -325 -181 -722 74 -972 l53 -53
980 981 c539 540 997 1004 1019 1031 63 79 109 165 144 266 29 86 32 104 32
224 0 95 -4 147 -17 195 -26 91 -87 214 -145 290 -52 67 -1997 2030 -2012
2030 -5 0 -32 -28 -60 -62z"/>
<path d="M2222 13695 c-86 -98 -132 -223 -132 -360 0 -94 17 -164 61 -255 29
-58 84 -118 548 -583 l516 -518 -30 -22 c-43 -30 -562 -541 -800 -786 -163
-168 -206 -218 -232 -272 -105 -213 -76 -441 78 -603 l58 -61 17 25 c28 40
190 206 810 830 l582 585 41 86 c105 219 68 425 -113 630 -100 113 -1340 1349
-1353 1349 -6 0 -29 -20 -51 -45z"/>
<path d="M14570 8261 c-19 -11 -45 -30 -58 -44 -26 -27 -22 -48 21 -104 l24
-33 33 25 c46 34 99 32 200 -5 122 -45 193 -39 267 24 33 27 33 28 17 64 -8
20 -24 47 -36 59 l-21 22 -36 -25 c-48 -32 -97 -31 -191 6 -89 36 -166 39
-220 11z"/>
<path d="M8480 7980 c-58 -4 -108 -8 -112 -9 -5 0 -8 -257 -8 -570 l0 -568 31
-7 c40 -8 147 -8 177 0 22 6 22 8 22 185 l0 179 54 0 c217 0 364 69 432 202
55 107 54 289 0 397 -33 63 -113 135 -182 160 -56 21 -199 42 -269 39 -22 -1
-87 -5 -145 -8z m250 -191 c95 -20 149 -94 150 -203 0 -82 -28 -138 -87 -172
-37 -22 -58 -27 -121 -28 l-77 -1 -3 202 -2 202 22 4 c42 8 67 7 118 -4z"/>
<path d="M9450 7985 c-14 -2 -60 -7 -102 -10 l-78 -7 0 -568 0 -568 23 -6 c29
-8 136 -8 176 0 l31 7 0 477 0 478 30 7 c16 4 55 1 86 -5 80 -17 130 -65 145
-140 22 -106 -19 -178 -142 -251 -38 -23 -69 -43 -69 -46 0 -2 66 -121 146
-263 l145 -259 56 -7 c53 -6 181 0 191 10 2 3 -57 112 -133 242 -123 214 -134
239 -118 248 43 24 115 103 140 155 25 49 28 67 28 151 0 78 -4 104 -24 147
-41 93 -142 165 -266 191 -55 12 -225 22 -265 17z"/>
<path d="M10545 7979 c-85 -13 -192 -68 -249 -129 -104 -111 -152 -278 -143
-495 9 -224 75 -373 205 -462 76 -51 141 -73 247 -80 104 -7 183 8 272 52 167
82 254 261 254 525 1 368 -154 572 -451 593 -41 3 -102 1 -135 -4z m170 -200
c62 -18 119 -81 143 -161 63 -203 22 -494 -79 -571 -102 -77 -262 -49 -323 56
-44 76 -59 150 -59 292 0 144 14 216 57 289 53 90 151 125 261 95z"/>
<path d="M11490 7984 c-25 -2 -78 -6 -117 -10 l-73 -6 0 -568 0 -569 48 -8
c90 -15 391 -9 466 10 272 68 396 244 396 562 0 61 -7 142 -15 180 -43 202
-181 342 -386 389 -67 16 -241 27 -319 20z m243 -208 c104 -25 170 -84 209
-192 18 -48 22 -82 22 -184 1 -196 -42 -294 -154 -354 -49 -27 -66 -30 -167
-34 l-113 -5 0 386 c0 299 3 386 13 390 25 10 133 6 190 -7z"/>
<path d="M13822 7979 c-198 -30 -339 -153 -408 -356 -21 -62 -28 -103 -31
-198 -9 -204 42 -357 152 -466 64 -64 113 -94 185 -116 30 -9 59 -20 63 -23 4
-4 -6 -42 -22 -85 -17 -43 -28 -81 -26 -85 3 -4 42 -5 88 -3 69 5 86 3 100
-11 21 -21 21 -27 3 -51 -16 -22 -104 -32 -158 -17 -32 9 -37 8 -46 -13 -6
-13 -14 -39 -17 -58 l-7 -35 46 -7 c26 -4 86 -6 134 -3 69 3 97 9 131 28 140
79 86 267 -78 273 -28 1 -51 3 -51 4 0 1 5 13 11 26 10 22 19 25 97 30 90 7
200 31 217 48 9 9 -28 155 -44 172 -4 4 -36 0 -72 -9 -78 -20 -224 -15 -282
10 -59 26 -112 80 -143 148 -28 61 -29 68 -29 213 0 131 3 157 23 205 30 76
73 124 138 156 84 41 168 43 324 8 24 -5 27 -1 49 59 12 36 21 78 19 93 -3 26
-9 30 -64 45 -79 21 -222 30 -302 18z"/>
<path d="M14681 7980 c-106 -16 -195 -63 -262 -137 -51 -56 -74 -99 -105 -188
-36 -106 -45 -307 -20 -436 51 -261 224 -409 476 -409 249 0 422 145 476 400
23 109 15 339 -16 435 -40 126 -114 226 -210 283 -77 45 -231 69 -339 52z
m164 -201 c53 -15 118 -83 139 -145 56 -170 37 -435 -39 -546 -62 -92 -206
-113 -306 -45 -151 102 -157 588 -8 699 62 47 134 59 214 37z"/>
<path d="M16507 7979 c-78 -11 -166 -52 -210 -97 -104 -107 -115 -317 -22
-421 41 -45 101 -79 225 -126 157 -60 190 -90 190 -175 0 -90 -63 -139 -188
-147 -73 -5 -126 4 -258 42 -20 6 -23 -1 -44 -84 -12 -49 -19 -94 -16 -99 3
-5 40 -20 83 -33 65 -20 100 -23 213 -24 115 0 146 3 206 23 81 27 156 79 195
137 73 106 77 285 11 384 -41 60 -94 94 -243 154 -163 67 -199 95 -199 158 0
101 48 132 190 126 60 -3 116 -12 152 -25 l57 -20 20 61 c37 116 37 114 -35
137 -61 19 -206 41 -249 39 -11 -1 -46 -5 -78 -10z"/>
<path d="M12428 7972 l-58 -3 0 -377 c1 -412 8 -492 55 -588 33 -67 109 -136
183 -165 49 -20 76 -23 187 -23 165 0 222 19 306 103 107 107 119 174 119 673
l0 377 -57 3 c-32 2 -84 1 -115 0 l-58 -4 0 -361 c0 -379 -6 -457 -43 -522
-33 -57 -77 -77 -162 -73 -109 5 -152 46 -175 169 -6 28 -10 217 -10 419 l0
368 -57 4 c-32 1 -84 2 -115 0z"/>
<path d="M15430 7400 l0 -570 325 0 325 0 5 23 c3 12 5 54 3 92 l-3 70 -212 3
-213 2 0 155 0 155 165 0 165 0 0 95 0 95 -165 0 -165 0 0 125 0 125 204 0
c233 0 216 -8 216 100 0 30 -3 65 -6 78 l-6 22 -319 0 -319 0 0 -570z"/>
</g>
</svg>
